<svg width="31" height="35" viewBox="0 0 31 35" fill="none" xmlns="http://www.w3.org/2000/svg">
<path d="M29.8781 11.439C28.0854 3.55122 21.2049 0 15.161 0C15.161 0 15.161 0 15.1439 0C9.11704 0 2.21947 3.53415 0.426792 11.422C-1.57077 20.2317 3.82435 27.6927 8.70728 32.3878C10.517 34.1293 12.839 35 15.161 35C17.4829 35 19.8049 34.1293 21.5976 32.3878C26.4805 27.6927 31.8756 20.2488 29.8781 11.439ZM15.161 19.9927C12.1903 19.9927 9.78289 17.5854 9.78289 14.6146C9.78289 11.6439 12.1903 9.23659 15.161 9.23659C18.1317 9.23659 20.539 11.6439 20.539 14.6146C20.539 17.5854 18.1317 19.9927 15.161 19.9927Z" fill="#4E14E6"/>
</svg>
