<svg width="27" height="25" viewBox="0 0 27 25" fill="none" xmlns="http://www.w3.org/2000/svg">
<path d="M21.0921 24.3065C18.2309 24.3065 15.8955 21.9711 15.8955 19.1099V18.4986C15.8955 17.9973 16.3112 17.5815 16.8125 17.5815C17.3139 17.5815 17.7296 17.9973 17.7296 18.4986V19.1099C17.7296 20.9685 19.2336 22.4724 21.0921 22.4724C22.9507 22.4724 24.4546 20.9685 24.4546 19.1099C24.4546 17.2514 22.9507 15.7474 21.0921 15.7474H0.917048C0.415729 15.7474 0 15.3317 0 14.8304C0 14.3291 0.415729 13.9133 0.917048 13.9133H21.0921C23.9533 13.9133 26.2887 16.2487 26.2887 19.1099C26.2887 21.9711 23.9533 24.3065 21.0921 24.3065Z" fill="#7292F5"/>
<path d="M21.0921 12.0792H0.917048C0.415729 12.0792 0 11.6635 0 11.1622C0 10.6609 0.415729 10.2451 0.917048 10.2451H21.0921C22.9507 10.2451 24.4546 8.74118 24.4546 6.88263C24.4546 5.02408 22.9507 3.52012 21.0921 3.52012C19.2336 3.52012 17.7296 5.02408 17.7296 6.88263V7.494C17.7296 7.99532 17.3139 8.41105 16.8125 8.41105C16.3112 8.41105 15.8955 7.99532 15.8955 7.494V6.88263C15.8955 4.02144 18.2309 1.68603 21.0921 1.68603C23.9533 1.68603 26.2887 4.02144 26.2887 6.88263C26.2887 9.74382 23.9533 12.0792 21.0921 12.0792Z" fill="#7292F5"/>
<path d="M9.85521 8.41239H0.917048C0.415728 8.41239 0 7.99666 0 7.49534C0 6.99402 0.415728 6.57829 0.917048 6.57829H9.85521C11.1635 6.57829 12.2273 5.51452 12.2273 4.20619C12.2273 2.89787 11.1635 1.8341 9.85521 1.8341C8.54689 1.8341 7.48311 2.89787 7.48311 4.20619V4.67083C7.48311 5.17215 7.06738 5.58788 6.56606 5.58788C6.06474 5.58788 5.64902 5.18438 5.64902 4.67083V4.20619C5.64902 1.88301 7.53202 0 9.85521 0C12.1784 0 14.0614 1.88301 14.0614 4.20619C14.0614 6.52938 12.1784 8.41239 9.85521 8.41239Z" fill="#7292F5"/>
</svg>
